<svg width="27" height="26" viewBox="0 0 27 26" fill="none" xmlns="http://www.w3.org/2000/svg">
<path d="M13.6041 0H15.3725C15.3725 0.789556 15.3725 1.57616 15.3725 2.36571C18.5366 2.38345 21.6978 2.33318 24.859 2.38345C25.5332 2.31544 26.0625 2.83885 26.0004 3.51308C26.0507 9.33865 25.9886 15.1672 26.03 20.9927C26.0004 21.5901 26.0891 22.2525 25.7432 22.7818C25.3114 23.0893 24.7525 23.0509 24.2498 23.0746C21.2897 23.0598 18.3326 23.0657 15.3725 23.0657C15.3725 23.8552 15.3725 24.6418 15.3725 25.4314H13.5243C9.02353 24.6093 4.51094 23.8552 0.00131428 23.0657C-0.00164285 16.1667 0.00131428 9.26767 0.00131428 2.37163C4.5346 1.57911 9.07084 0.807299 13.6041 0Z" fill="#2A5699"/>
<path d="M15.3726 3.25293C18.6254 3.25293 21.8783 3.25293 25.1311 3.25293C25.1311 9.5605 25.1311 15.871 25.1311 22.1786C21.8783 22.1786 18.6254 22.1786 15.3726 22.1786C15.3726 21.389 15.3726 20.6025 15.3726 19.8129C17.9364 19.8129 20.4973 19.8129 23.0611 19.8129C23.0611 19.4196 23.0611 19.0233 23.0611 18.63C20.4973 18.63 17.9364 18.63 15.3726 18.63C15.3726 18.1362 15.3726 17.6453 15.3726 17.1515C17.9364 17.1515 20.4973 17.1515 23.0611 17.1515C23.0611 16.7582 23.0611 16.3619 23.0611 15.9686C20.4973 15.9686 17.9364 15.9686 15.3726 15.9686C15.3726 15.4748 15.3726 14.9839 15.3726 14.4901C17.9364 14.4901 20.4973 14.4901 23.0611 14.4901C23.0611 14.0968 23.0611 13.7005 23.0611 13.3072C20.4973 13.3072 17.9364 13.3072 15.3726 13.3072C15.3726 12.8134 15.3726 12.3225 15.3726 11.8286C17.9364 11.8286 20.4973 11.8286 23.0611 11.8286C23.0611 11.4353 23.0611 11.0391 23.0611 10.6458C20.4973 10.6458 17.9364 10.6458 15.3726 10.6458C15.3726 10.1519 15.3726 9.66105 15.3726 9.1672C17.9364 9.1672 20.4973 9.1672 23.0611 9.1672C23.0611 8.7739 23.0611 8.37765 23.0611 7.98435C20.4973 7.98435 17.9364 7.98435 15.3726 7.98435C15.3726 7.49051 15.3726 6.99962 15.3726 6.50578C17.9364 6.50578 20.4973 6.50578 23.0611 6.50578C23.0611 6.11248 23.0611 5.71622 23.0611 5.32293C20.4973 5.32293 17.9364 5.32293 15.3726 5.32293C15.3726 4.63391 15.3726 3.94194 15.3726 3.25293Z" fill="white"/>
<path d="M6.11485 8.47794C6.67671 8.44541 7.23856 8.42176 7.80042 8.39219C8.19372 10.3883 8.59589 12.3814 9.02171 14.3686C9.35587 12.3163 9.72551 10.27 10.0833 8.22067C10.6748 8.19997 11.2662 8.16744 11.8547 8.13196C11.1863 10.9974 10.6008 13.8866 9.87041 16.7343C9.37657 16.9915 8.63729 16.7224 8.05177 16.7638C7.65847 14.8062 7.20012 12.8604 6.84822 10.8939C6.50223 12.8042 6.05275 14.6968 5.65649 16.5953C5.08872 16.5657 4.518 16.5302 3.94727 16.4918C3.45638 13.8895 2.87974 11.305 2.42139 8.69677C2.92706 8.67311 3.43568 8.65241 3.94135 8.63467C4.24594 10.5184 4.59192 12.3932 4.85807 14.2799C5.27502 12.3459 5.70085 10.4119 6.11485 8.47794Z" fill="white"/>
</svg>
