<svg width="165" height="75" viewBox="0 0 165 75" fill="none"
                                xmlns="http://www.w3.org/2000/svg">
                                <ellipse cx="37.4996" cy="39.4735" rx="36.1364" ry="35.5267" fill="#4781EE" />
                                <ellipse cx="37.4999" cy="39.4743" rx="32.7904" ry="32.2372" fill="white" />
                                <path
                                    d="M12.8838 54.607C12.8838 57.9563 10.1197 60.686 6.69192 60.686C3.26416 60.686 0.5 57.9563 0.5 54.607C0.5 51.2576 3.26416 48.528 6.69192 48.528C10.1197 48.528 12.8838 51.2576 12.8838 54.607Z"
                                    fill="#4781EE" stroke="white" />
                                <path
                                    d="M74.4998 54.607C74.4998 57.9563 71.7356 60.686 68.3079 60.686C64.8801 60.686 62.116 57.9563 62.116 54.607C62.116 51.2576 64.8801 48.528 68.3079 48.528C71.7356 48.528 74.4998 51.2576 74.4998 54.607Z"
                                    fill="#4781EE" stroke="white" />
                                <path
                                    d="M43.6922 6.57902C43.6922 9.92838 40.928 12.658 37.5003 12.658C34.0725 12.658 31.3083 9.92838 31.3083 6.57902C31.3083 3.22966 34.0725 0.5 37.5003 0.5C40.928 0.5 43.6922 3.22966 43.6922 6.57902Z"
                                    fill="#4781EE" stroke="white" />
                                <ellipse cx="37.5003" cy="6.57869" rx="3.34596" ry="3.28951" fill="white" />
                                <ellipse cx="68.3084" cy="54.6057" rx="3.34596" ry="3.28951" fill="white" />
                                <ellipse cx="6.69191" cy="54.6057" rx="3.34596" ry="3.28951" fill="white" />
                                <!-- <path d="M37.4181 16.5621C25.4627 35.5766 25.5177 46.2535 37.4181 65.4776"
                                    stroke="#4781EE" />
                                <path d="M57.9497 53.4845C35.7014 54.1568 26.7672 48.4516 16.4955 28.5434"
                                    stroke="#4781EE" />
                                <path d="M57.6654 53.5591C47.7338 33.3534 38.7361 28.0053 16.5701 28.834"
                                    stroke="#4781EE" />
                                <path d="M57.8103 28.4207C47.5657 48.7151 38.3677 53.9597 16.435 53.4995"
                                    stroke="#4781EE" />
                                <path d="M57.7363 28.7116C35.7157 27.8015 26.7907 33.2768 16.7192 53.5734"
                                    stroke="#4781EE" />
                                <path
                                    d="M33.6752 43.4755C28.6091 39.4101 26.0057 36.8945 21.6123 32.1544C27.9466 33.3942 31.3227 34.4502 37.0029 37.0673C42.9666 34.5373 46.3764 33.4381 52.6015 32.1544C48.6612 36.9516 46.0447 39.4225 40.7465 43.4755C40.0329 49.7086 39.1872 53.2126 37.0029 59.4958C35.108 53.2383 34.3172 49.7327 33.6752 43.4755Z"
                                    fill="#4781EE" />
                                <path d="M37.2109 16.3485C49.0216 35.7246 48.7444 46.5257 37.2109 65.6911"
                                    stroke="#4781EE" />
                                <ellipse cx="37.2112" cy="41.3393" rx="3.53568" ry="3.63128"
                                    fill="white" />
                                <path
                                    d="M109.44 31.48C109.44 32.8933 109.107 34.2267 108.44 35.48C107.773 36.7333 106.707 37.76 105.24 38.56C103.773 39.3333 101.893 39.72 99.6 39.72H94.56V51H90V23.2H99.6C101.733 23.2 103.533 23.5733 105 24.32C106.493 25.04 107.6 26.0267 108.32 27.28C109.067 28.5333 109.44 29.9333 109.44 31.48ZM99.6 36C101.333 36 102.627 35.6133 103.48 34.84C104.333 34.04 104.76 32.92 104.76 31.48C104.76 28.44 103.04 26.92 99.6 26.92H94.56V36H99.6ZM123.269 23.2C126.229 23.2 128.816 23.7733 131.029 24.92C133.269 26.04 134.989 27.6667 136.189 29.8C137.416 31.9067 138.029 34.3733 138.029 37.2C138.029 40.0267 137.416 42.48 136.189 44.56C134.989 46.64 133.269 48.24 131.029 49.36C128.816 50.4533 126.229 51 123.269 51H114.189V23.2H123.269ZM123.269 47.28C126.522 47.28 129.016 46.4 130.749 44.64C132.482 42.88 133.349 40.4 133.349 37.2C133.349 33.9733 132.482 31.4533 130.749 29.64C129.016 27.8267 126.522 26.92 123.269 26.92H118.749V47.28H123.269ZM152.108 51.28C150.242 51.28 148.562 50.96 147.068 50.32C145.575 49.6533 144.402 48.72 143.548 47.52C142.695 46.32 142.268 44.92 142.268 43.32H147.148C147.255 44.52 147.722 45.5067 148.548 46.28C149.402 47.0533 150.588 47.44 152.108 47.44C153.682 47.44 154.908 47.0667 155.788 46.32C156.668 45.5467 157.108 44.56 157.108 43.36C157.108 42.4267 156.828 41.6667 156.268 41.08C155.735 40.4933 155.055 40.04 154.228 39.72C153.428 39.4 152.308 39.0533 150.868 38.68C149.055 38.2 147.575 37.72 146.428 37.24C145.308 36.7333 144.348 35.96 143.548 34.92C142.748 33.88 142.348 32.4933 142.348 30.76C142.348 29.16 142.748 27.76 143.548 26.56C144.348 25.36 145.468 24.44 146.908 23.8C148.348 23.16 150.015 22.84 151.908 22.84C154.602 22.84 156.802 23.52 158.508 24.88C160.242 26.2133 161.202 28.0533 161.388 30.4H156.348C156.268 29.3867 155.788 28.52 154.908 27.8C154.028 27.08 152.868 26.72 151.428 26.72C150.122 26.72 149.055 27.0533 148.228 27.72C147.402 28.3867 146.988 29.3467 146.988 30.6C146.988 31.4533 147.242 32.16 147.748 32.72C148.282 33.2533 148.948 33.68 149.748 34C150.548 34.32 151.642 34.6667 153.028 35.04C154.868 35.5467 156.362 36.0533 157.508 36.56C158.682 37.0667 159.668 37.8533 160.468 38.92C161.295 39.96 161.708 41.36 161.708 43.12C161.708 44.5333 161.322 45.8667 160.548 47.12C159.802 48.3733 158.695 49.3867 157.228 50.16C155.788 50.9067 154.082 51.28 152.108 51.28Z"
                                    fill="#4781EE" /> -->
                            </svg>